<?xml version="1.0" encoding="utf-8"?>
<!-- Generator: Adobe Illustrator 27.5.0, SVG Export Plug-In . SVG Version: 6.00 Build 0)  -->
<svg version="1.1" xmlns="http://www.w3.org/2000/svg" xmlns:xlink="http://www.w3.org/1999/xlink" x="0px" y="0px"
	 viewBox="0 0 500 500" style="enable-background:new 0 0 500 500;" xml:space="preserve">
<g id="Background_Simple">
	<g>
		<path style="fill:#C6FF00;" d="M410.708,240.149c-14.567,37.608-48.609,66.138-83.985,79.714
			c-27.459,10.538-56.674,9.497-85.794,0.447c-27.63-8.587-53.033-22.514-81.379-16.236c-22.264,4.932-47.366,11.992-67.486-8.326
			c-10.045-10.144-16.712-23.9-21.113-37.982c-13.975-44.707-6.958-92.008,22.965-121.354
			c25.636-25.141,62.282-37.259,97.637-35.112c6.724,0.408,13.468,1.361,20.142,2.985c17.465,4.249,36.526,10.902,54.451,8.49
			c21.118-2.842,35.774-18.9,55.013-26.265c19.871-7.608,40.478,1.382,56.312,18.512
			C410.612,140.876,428.259,194.833,410.708,240.149z"/>
		<path style="opacity:0.7;fill:#FFFFFF;" d="M410.708,240.149c-14.567,37.608-48.609,66.138-83.985,79.714
			c-27.459,10.538-56.674,9.497-85.794,0.447c-27.63-8.587-53.033-22.514-81.379-16.236c-22.264,4.932-47.366,11.992-67.486-8.326
			c-10.045-10.144-16.712-23.9-21.113-37.982c-13.975-44.707-6.958-92.008,22.965-121.354
			c25.636-25.141,62.282-37.259,97.637-35.112c6.724,0.408,13.468,1.361,20.142,2.985c17.465,4.249,36.526,10.902,54.451,8.49
			c21.118-2.842,35.774-18.9,55.013-26.265c19.871-7.608,40.478,1.382,56.312,18.512
			C410.612,140.876,428.259,194.833,410.708,240.149z"/>
	</g>
</g>
<g id="Window">
	<g>
		<g>
			<polygon style="fill:#FFFFFF;" points="287.973,125.533 203.325,125.533 204.181,117.667 288.83,117.667 			"/>
			<polygon style="fill:#FFFFFF;" points="287.973,136.547 203.325,136.547 204.181,128.68 288.83,128.68 			"/>
			<polygon style="fill:#FFFFFF;" points="287.973,147.56 203.325,147.56 204.181,139.693 288.83,139.693 			"/>
			<polygon style="fill:#FFFFFF;" points="287.973,158.573 203.325,158.573 204.181,150.707 288.83,150.707 			"/>
			<polygon style="fill:#FFFFFF;" points="287.973,169.587 203.325,169.587 204.181,161.72 288.83,161.72 			"/>
			<polygon style="fill:#FFFFFF;" points="287.973,180.6 203.325,180.6 204.181,172.733 288.83,172.733 			"/>
			<polygon style="fill:#FFFFFF;" points="287.973,191.613 203.325,191.613 204.181,183.747 288.83,183.747 			"/>
			<polygon style="fill:#FFFFFF;" points="287.973,202.627 203.325,202.627 204.181,194.76 288.83,194.76 			"/>
			<polygon style="fill:#FFFFFF;" points="287.973,213.64 203.325,213.64 204.181,205.773 288.83,205.773 			"/>
			<polygon style="fill:#FFFFFF;" points="287.973,224.653 203.325,224.653 204.181,216.787 288.83,216.787 			"/>
			<polygon style="fill:#FFFFFF;" points="287.973,235.667 203.325,235.667 204.181,227.8 288.83,227.8 			"/>
		</g>
		<g>
			<polygon style="fill:#FFFFFF;" points="377.477,125.533 292.828,125.533 293.685,117.667 378.333,117.667 			"/>
			<polygon style="fill:#FFFFFF;" points="377.477,136.547 292.828,136.547 293.685,128.68 378.333,128.68 			"/>
			<polygon style="fill:#FFFFFF;" points="377.477,147.56 292.828,147.56 293.685,139.693 378.333,139.693 			"/>
			<polygon style="fill:#FFFFFF;" points="377.477,158.573 292.828,158.573 293.685,150.707 378.333,150.707 			"/>
			<polygon style="fill:#FFFFFF;" points="377.477,169.587 292.828,169.587 293.685,161.72 378.333,161.72 			"/>
			<polygon style="fill:#FFFFFF;" points="377.477,180.6 292.828,180.6 293.685,172.733 378.333,172.733 			"/>
			<polygon style="fill:#FFFFFF;" points="377.477,191.613 292.828,191.613 293.685,183.747 378.333,183.747 			"/>
			<polygon style="fill:#FFFFFF;" points="377.477,202.627 292.828,202.627 293.685,194.76 378.333,194.76 			"/>
			<polygon style="fill:#FFFFFF;" points="377.477,213.64 292.828,213.64 293.685,205.773 378.333,205.773 			"/>
			<polygon style="fill:#FFFFFF;" points="377.477,224.653 292.828,224.653 293.685,216.787 378.333,216.787 			"/>
			<polygon style="fill:#FFFFFF;" points="377.477,235.667 292.828,235.667 293.685,227.8 378.333,227.8 			"/>
		</g>
		<g>
			<path style="fill:#FFFFFF;" d="M138.877,141.758h-33.839c-2.832,0-5.127,2.296-5.127,5.127v0c0,2.832,2.296,5.127,5.127,5.127
				h33.839V141.758z"/>
			<path style="fill:#FFFFFF;" d="M138.877,128.94h-33.839c-2.832,0-5.127,2.296-5.127,5.127l0,0c0,2.832,2.296,5.127,5.127,5.127
				h33.839V128.94z"/>
			<rect x="141.953" y="117.148" style="fill:#FFFFFF;" width="12.305" height="34.352"/>
			<rect x="157.335" y="117.148" style="fill:#FFFFFF;" width="12.305" height="34.352"/>
			<rect x="172.716" y="117.148" style="fill:#FFFFFF;" width="12.305" height="34.352"/>
			<polygon style="opacity:0.15;" points="192.45,152.417 95.828,152.417 95.828,158.142 103.667,158.142 103.667,172.333 
				108.333,172.333 108.333,158.142 177.667,158.142 177.667,172.333 182.333,172.333 182.333,158.142 192.45,158.142 			"/>
		</g>
	</g>
</g>
<g id="Plants">
	<g>
		<g>
			<path style="fill:#C6FF00;" d="M386.5,251.348c0,0-3.5,4-5.5,12c-2,8,7,14,4,22.5s-8.5,12.5-7,21s8,9,3,18.5s-9.5,13-8,22
				s20.5,20.5,20.5,20.5s13-14.5,13.5-24s-11.5-15.5-9.5-24s7-15.5,6.5-23.5s-10-14-10-20s4-9.5,4-16.5c0-7-9-13-9-17s2-9,2-9
				S381.5,239.848,386.5,251.348z"/>
			<path style="opacity:0.5;fill:#FFFFFF;" d="M386.5,251.348c0,0-3.5,4-5.5,12c-2,8,7,14,4,22.5s-8.5,12.5-7,21s8,9,3,18.5
				s-9.5,13-8,22s20.5,20.5,20.5,20.5s13-14.5,13.5-24s-11.5-15.5-9.5-24s7-15.5,6.5-23.5s-10-14-10-20s4-9.5,4-16.5c0-7-9-13-9-17
				s2-9,2-9S381.5,239.848,386.5,251.348z"/>
		</g>
		<g>
			
				<line style="fill:none;stroke:#263238;stroke-linecap:round;stroke-linejoin:round;stroke-miterlimit:10;" x1="391.5" y1="364.848" x2="390.5" y2="256.848"/>
			<polyline style="fill:none;stroke:#263238;stroke-linecap:round;stroke-linejoin:round;stroke-miterlimit:10;" points="
				401.586,340.126 391.789,349.924 380.685,340.126 			"/>
			<polyline style="fill:none;stroke:#263238;stroke-linecap:round;stroke-linejoin:round;stroke-miterlimit:10;" points="
				398.321,297.017 391.136,308.121 384.931,297.997 			"/>
			<polyline style="fill:none;stroke:#263238;stroke-linecap:round;stroke-linejoin:round;stroke-miterlimit:10;" points="
				386.564,264.359 390.809,269.584 394.402,263.379 			"/>
		</g>
		<rect x="379" y="364.848" style="fill:#263238;" width="25" height="28"/>
	</g>
</g>
<g id="Table">
	<g>
		<g>
			<g>
				<path style="fill:#263238;stroke:#263238;stroke-linecap:round;stroke-linejoin:round;stroke-miterlimit:10;" d="
					M282.472,279.405l9.414,112.014c0.103,0.71,0.785,1.185,1.471,1.024c0.582-0.137,0.97-0.689,0.909-1.294l-6.409-111.744H282.472
					z"/>
				<path style="fill:#263238;stroke:#263238;stroke-linecap:round;stroke-linejoin:round;stroke-miterlimit:10;" d="
					M345.701,279.405l9.445,112.388c0.103,0.71,0.785,1.185,1.471,1.024c0.582-0.137,0.971-0.689,0.909-1.294l-6.43-112.117H345.701
					z"/>
				<path style="fill:#263238;stroke:#263238;stroke-linecap:round;stroke-linejoin:round;stroke-miterlimit:10;" d="
					M181.443,279.405l-4.967,111.033c-0.053,0.604,0.342,1.162,0.926,1.306h0c0.689,0.17,1.365-0.296,1.459-1.005l7.957-111.335
					H181.443z"/>
				<path style="fill:#263238;stroke:#263238;stroke-linecap:round;stroke-linejoin:round;stroke-miterlimit:10;" d="
					M123.166,279.405l-4.951,110.66c-0.053,0.604,0.342,1.162,0.926,1.306c0.689,0.17,1.365-0.296,1.459-1.005l7.931-110.961
					H123.166z"/>
			</g>
			<g>
				
					<rect x="119.652" y="273.201" style="fill:#FFFFFF;stroke:#263238;stroke-linecap:round;stroke-linejoin:round;stroke-miterlimit:10;" width="238.348" height="9.618"/>
				
					<rect x="119.652" y="273.201" style="fill:#263238;stroke:#263238;stroke-linecap:round;stroke-linejoin:round;stroke-miterlimit:10;" width="238.348" height="3.299"/>
				
					<rect x="274.174" y="273.201" style="fill:#263238;stroke:#263238;stroke-linecap:round;stroke-linejoin:round;stroke-miterlimit:10;" width="83.826" height="9.618"/>
				
					<rect x="116.667" y="270" style="fill:#FFFFFF;stroke:#263238;stroke-linecap:round;stroke-linejoin:round;stroke-miterlimit:10;" width="244.319" height="3.667"/>
				
					<rect x="277.667" y="270" style="fill:#263238;stroke:#263238;stroke-linecap:round;stroke-linejoin:round;stroke-miterlimit:10;" width="83.319" height="3.667"/>
			</g>
		</g>
		<g>
			<polygon style="fill:#263238;stroke:#263238;stroke-linecap:round;stroke-linejoin:round;stroke-miterlimit:10;" points="
				252.491,257.223 259.759,269.74 247.232,269.74 			"/>
			<path style="fill:#263238;stroke:#263238;stroke-linecap:round;stroke-linejoin:round;stroke-miterlimit:10;" d="
				M175.602,269.667h71.629c0.552,0,1.052-0.327,1.274-0.832l19.833-45.218c0.403-0.919-0.27-1.949-1.274-1.949h-71.629
				c-0.552,0-1.052,0.326-1.274,0.832l-19.833,45.218C173.926,268.636,174.599,269.667,175.602,269.667z"/>
			<g>
				<defs>
					<path id="XMLID_4_" d="M180.765,267.873h61.986c0.516,0,0.982-0.305,1.189-0.777l18.156-40.426
						c0.376-0.858-0.252-1.82-1.189-1.82H198.92c-0.516,0-0.982,0.305-1.189,0.777l-18.156,40.426
						C179.199,266.91,179.828,267.873,180.765,267.873z"/>
				</defs>
				<use xlink:href="#XMLID_4_"  style="overflow:visible;fill:#FFFFFF;"/>
				<clipPath id="XMLID_00000114050599517760761040000004430396076773979561_">
					<use xlink:href="#XMLID_4_"  style="overflow:visible;"/>
				</clipPath>
				<g style="clip-path:url(#XMLID_00000114050599517760761040000004430396076773979561_);">
					<path style="fill:#C6FF00;stroke:#263238;stroke-linecap:round;stroke-linejoin:round;stroke-miterlimit:10;" d="
						M251.079,251.2c-9.448-1.634-12.725-10.206-21.699-22.173c-1.265-1.687-2.757-3.057-4.385-4.178H198.92
						c-0.516,0-0.982,0.305-1.189,0.777l-6.753,15.037c18.769,7.836,21.633-2.881,39.775,4.376
						c7.991,3.196,13.8,7.701,17.811,11.762L251.079,251.2z"/>
					<path style="fill:#C6FF00;stroke:#263238;stroke-linecap:round;stroke-linejoin:round;stroke-miterlimit:10;" d="
						M228.923,252.818c-14.641-1.373-43.464,10.065-43.464,10.065l-2.673,4.989h13.696c10.317-4.003,22.66-7.976,30.153-7.734
						c7.884,0.254,9.545,4.325,9.782,7.734h2.223C239.761,262.349,239.034,253.766,228.923,252.818z"/>
					<path style="fill:#C6FF00;stroke:#263238;stroke-linecap:round;stroke-linejoin:round;stroke-miterlimit:10;" d="
						M263.237,237.262c0-2.463-3.438-8.2-6.201-12.413h-8.277C253.142,229.69,263.237,240.486,263.237,237.262z"/>
				</g>
				
					<use xlink:href="#XMLID_4_"  style="overflow:visible;fill:none;stroke:#263238;stroke-linecap:round;stroke-linejoin:round;stroke-miterlimit:10;"/>
			</g>
		</g>
		<g>
			
				<rect x="332.734" y="265.171" transform="matrix(-1 -1.224647e-16 1.224647e-16 -1 685.4282 535.4594)" style="fill:#263238;" width="19.96" height="5.118"/>
			<g>
				<path style="fill:#263238;" d="M343.228,266.915c1.043,0,1.921-0.808,1.993-1.863l3.327-48.62
					c0.076-1.102-0.757-2.057-1.858-2.132c-1.098-0.084-2.057,0.756-2.132,1.858l-3.327,48.62c-0.076,1.103,0.757,2.057,1.858,2.132
					C343.135,266.913,343.182,266.915,343.228,266.915z"/>
			</g>
			<g>
				<path style="fill:#263238;" d="M346.807,218.807c0.611,0,1.213-0.278,1.606-0.806c0.66-0.886,0.476-2.139-0.411-2.798
					l-32.801-23.081c-0.435-0.323-1.049-0.233-1.371,0.201c-0.323,0.434-0.233,1.048,0.201,1.371l31.583,24.718
					C345.973,218.679,346.392,218.807,346.807,218.807z"/>
			</g>
			<circle style="fill:#263238;" cx="346.808" cy="216.551" r="3.071"/>
			<circle style="fill:#263238;" cx="314.054" cy="194.033" r="3.071"/>
			<path style="fill:#263238;" d="M301.029,198.243l11.577,9.287l3.881-10.027c0.689-1.78,0.145-3.801-1.344-4.996l0,0
				c-1.489-1.194-3.58-1.286-5.168-0.228L301.029,198.243z"/>
		</g>
		<g>
			<path style="fill:#FFFFFF;stroke:#263238;stroke-linecap:round;stroke-linejoin:round;stroke-miterlimit:10;" d="M292.35,269.667
				h45.763c0.353,0,0.672-0.209,0.814-0.532l12.671-28.89c0.258-0.587-0.173-1.245-0.814-1.245H305.02
				c-0.353,0-0.672,0.209-0.814,0.532l-12.671,28.889C291.278,269.008,291.708,269.667,292.35,269.667z"/>
			<g>
				<defs>
					<path id="XMLID_3_" d="M296.637,267.417h39.048c0.301,0,0.573-0.178,0.694-0.454l10.811-24.65
						c0.22-0.501-0.147-1.063-0.694-1.063h-39.048c-0.301,0-0.573,0.178-0.694,0.454l-10.811,24.65
						C295.723,266.855,296.09,267.417,296.637,267.417z"/>
				</defs>
				<use xlink:href="#XMLID_3_"  style="overflow:visible;fill:#FFFFFF;"/>
				<clipPath id="XMLID_00000088849344816133167300000008745330016627130779_">
					<use xlink:href="#XMLID_3_"  style="overflow:visible;"/>
				</clipPath>
				<g style="clip-path:url(#XMLID_00000088849344816133167300000008745330016627130779_);">
					<path style="fill:#C6FF00;stroke:#263238;stroke-linecap:round;stroke-linejoin:round;stroke-miterlimit:10;" d="
						M326.152,243.126c-0.843-1.075-1.836-1.948-2.92-2.661h-17.363c-0.343,0-0.654,0.194-0.792,0.495l-4.497,9.579
						c12.498,4.992,14.406-1.835,26.487,2.788c5.321,2.036,9.19,4.906,11.86,7.493l1.676-3.569
						C334.31,256.211,332.128,250.749,326.152,243.126z"/>
					<path style="fill:#C6FF00;stroke:#263238;stroke-linecap:round;stroke-linejoin:round;stroke-miterlimit:10;" d="
						M325.847,258.282c-9.749-0.874-28.943,6.412-28.943,6.412l-1.78,3.178h9.12c6.87-2.55,15.09-5.081,20.079-4.927
						c5.25,0.162,6.356,2.755,6.514,4.927h1.48C333.064,264.354,332.58,258.886,325.847,258.282z"/>
					<path style="fill:#C6FF00;stroke:#263238;stroke-linecap:round;stroke-linejoin:round;stroke-miterlimit:10;" d="
						M344.568,240.465h-5.512c2.919,3.083,9.641,9.961,9.641,7.908C348.697,246.803,346.408,243.149,344.568,240.465z"/>
				</g>
				
					<use xlink:href="#XMLID_3_"  style="overflow:visible;fill:none;stroke:#263238;stroke-linecap:round;stroke-linejoin:round;stroke-miterlimit:10;"/>
			</g>
			
				<rect x="270" y="267.75" style="fill:#FFFFFF;stroke:#263238;stroke-linecap:round;stroke-linejoin:round;stroke-miterlimit:10;" width="68.75" height="2.25"/>
			
				<rect x="305.422" y="267.75" style="fill:#FFFFFF;stroke:#263238;stroke-linecap:round;stroke-linejoin:round;stroke-miterlimit:10;" width="33.328" height="2.25"/>
		</g>
		<g>
			
				<rect x="264.281" y="252.127" style="fill:#FFFFFF;stroke:#263238;stroke-linecap:round;stroke-linejoin:round;stroke-miterlimit:10;" width="12.126" height="17.917"/>
			<g>
				<path style="fill:#FFFFFF;stroke:#263238;stroke-linecap:round;stroke-linejoin:round;stroke-miterlimit:10;" d="
					M275.865,267.605h-1.267c-0.553,0-1-0.447-1-1c0-0.553,0.447-1,1-1h1.267c1.045,0,1.896-0.851,1.896-1.896v-4.344
					c0-1.045-0.851-1.896-1.896-1.896h-1.629c-0.553,0-1-0.448-1-1c0-0.552,0.447-1,1-1h1.629c2.148,0,3.896,1.748,3.896,3.896
					v4.344C279.76,265.858,278.013,267.605,275.865,267.605z"/>
			</g>
		</g>
	</g>
</g>
<g id="Character">
	<g>
		<g>
			<path style="fill:#FFFFFF;stroke:#263238;stroke-linecap:round;stroke-linejoin:round;stroke-miterlimit:10;" d="
				M193.726,176.286c0,0,2.747,8.517,2.747,10.166c0,1.649-0.275,3.572-0.275,3.572l2.43,3.756c0.323,0.499,0.165,1.166-0.347,1.467
				l-3.732,2.195c0,0-0.549,8.792-1.099,9.891c-0.549,1.099-9.891,0.824-9.891,0.824l-3.022,5.77l-15.661-6.045l4.121-11.265
				l-0.824-17.035C168.173,179.583,177.79,171.066,193.726,176.286z"/>
			<path style="fill:#FFFFFF;stroke:#263238;stroke-linecap:round;stroke-linejoin:round;stroke-miterlimit:10;" d="
				M182.735,197.443l2.198,0.549c0,0-0.549,3.297,1.648,5.77"/>
			
				<line style="fill:none;stroke:#263238;stroke-linecap:round;stroke-linejoin:round;stroke-miterlimit:10;" x1="185.271" y1="191.558" x2="200.743" y2="187.728"/>
			<path style="fill:none;stroke:#263238;stroke-linecap:round;stroke-linejoin:round;stroke-miterlimit:10;" d="M196.76,187.422
				l3.523,0.153c0,0,1.225,3.983-2.451,4.442"/>
		</g>
		<g>
			<path style="fill:#263238;stroke:#263238;stroke-linecap:round;stroke-linejoin:round;stroke-miterlimit:10;" d="
				M175.592,169.967c0,0-6.045-1.923-9.067,6.319s2.473,18.958,2.473,20.332c0,1.374,4.671,2.473,8.243,2.473
				c3.572,0,5.495-1.648,5.495-1.648s-1.374-5.495-0.275-6.594c1.099-1.099,3.847,1.374,3.847,1.374s1.648-0.275,2.473-0.824
				c0.824-0.549,4.946-2.747,3.572-5.22c-1.374-2.473-4.121-4.671-1.923-6.319c2.198-1.648,7.968-1.923,8.243-7.144
				c0.275-5.22-3.022-6.319-6.319-5.77c-3.297,0.549-2.198-4.671-8.517-3.847C177.515,163.922,174.493,167.494,175.592,169.967z"/>
			<path style="fill:none;stroke:#FFFFFF;stroke-width:0.5;stroke-linecap:round;stroke-linejoin:round;stroke-miterlimit:10;" d="
				M176.549,188.676c-0.752,1.481-0.98,2.618-0.98,2.618"/>
			<path style="fill:none;stroke:#FFFFFF;stroke-width:0.5;stroke-linecap:round;stroke-linejoin:round;stroke-miterlimit:10;" d="
				M190.63,178.863c0,0-1.913,1.673-7.889,4.064c-2.484,0.994-4.143,2.607-5.232,4.153"/>
			<path style="fill:none;stroke:#FFFFFF;stroke-width:0.5;stroke-linecap:round;stroke-linejoin:round;stroke-miterlimit:10;" d="
				M190.152,183.405c0,0-6.933,4.542-10.04,5.498"/>
		</g>
		<path style="fill:#263238;stroke:#263238;stroke-linecap:round;stroke-linejoin:round;stroke-miterlimit:10;" d="M239.99,226.73
			c1.645,2.682,6.009,8.65,10.555,12.715c0,0-3.831-8.53-9.514-13.573C240.533,225.43,239.643,226.164,239.99,226.73z"/>
		<path style="fill:#FFFFFF;stroke:#263238;stroke-linecap:round;stroke-linejoin:round;stroke-miterlimit:10;" d="M217.917,259.75
			l20.25-15.25c0,0,0-7,1-8.5s9.25-4,9.25-4s2.25-2.75,3.5,0s-0.5,5-0.5,5s0.25,4.5,0,6s-9,5.25-9,5.25s-12,17.75-18,22.75
			s-7.25,6-9.75,7s-7-6.25-7-6.25L217.917,259.75z"/>
		<g>
			<path style="fill:#263238;stroke:#263238;stroke-linecap:round;stroke-linejoin:round;stroke-miterlimit:10;" d="
				M181.167,376.767c0,0,14.25,9,16.75,9s3.75,2.25,2.5,2.5s-9,0.5-14.25,0.75s-8.75-0.25-11.75-0.25s-6.5,0.25-8-0.5
				s1-9.25,1-10.75S179.417,375.767,181.167,376.767z"/>
			<path style="fill:#FFFFFF;stroke:#263238;stroke-linecap:round;stroke-linejoin:round;stroke-miterlimit:10;" d="
				M199.554,386.132c-5.536,1.825-14.503,0.625-19.887,0.136c-4.258-0.387-10.896-0.474-13.685-0.494
				c-0.11,1.283-0.031,2.262,0.435,2.494c1.5,0.75,5,0.5,8,0.5s6.5,0.5,11.75,0.25s13-0.5,14.25-0.75
				C201.35,388.081,200.888,386.779,199.554,386.132z"/>
		</g>
		<path style="fill:#C6FF00;stroke:#263238;stroke-linecap:round;stroke-linejoin:round;stroke-miterlimit:10;" d="M192.417,315
			l-11.238,56.347l2.342,5.855c0,0-2.354,3.797-7.104,4.797s-9.75,1-9.75,1s-1.25-6.25-0.5-7s1-3.75,1-3.75l6.5-56.75L192.417,315z"
			/>
		<g>
			<path style="fill:#263238;stroke:#263238;stroke-linecap:round;stroke-linejoin:round;stroke-miterlimit:10;" d="
				M226.667,374.864c0,0,8.75,7.25,12.75,8.5s8.25,2.5,8.25,3.75s-9.5,2.5-16.75,1.75s-18.25-4-20.75-4c-2.5,0-2-6.5-2-7.5
				S220.417,368.364,226.667,374.864z"/>
			<path style="fill:#FFFFFF;stroke:#263238;stroke-linecap:round;stroke-linejoin:round;stroke-miterlimit:10;" d="
				M247.667,387.114c0-0.45-0.556-0.899-1.446-1.349c-5.401,0.803-13.068,1.061-21.554-0.151
				c-7.196-1.028-13.216-2.408-16.293-3.175c0.26,1.344,0.776,2.425,1.793,2.425c2.5,0,13.5,3.25,20.75,4
				S247.667,388.364,247.667,387.114z"/>
		</g>
		<g>
			<path style="fill:#C6FF00;stroke:#263238;stroke-linecap:round;stroke-linejoin:round;stroke-miterlimit:10;" d="M183.167,289.75
				c0,0,9.75-1,22.5,0.5c12.75,1.5,31.5,3.25,32,6.5s-12.377,70.896-12.377,72.646s2,3.5,2.5,4.5s0.5,2.25,0.5,2.25
				s-6.123,6.604-10.873,8.354s-8.742,0.119-9.742,0.119s-1-6.75-0.25-10s2-11.5,2.25-12.25s4.242-48.869,4.242-48.869
				s-27.5,6-49.75,3.5s-24.5-6-25.75-11.25s1.25-15.75,1.25-15.75L183.167,289.75z"/>
			<path style="fill:none;stroke:#263238;stroke-linecap:round;stroke-linejoin:round;stroke-miterlimit:10;" d="M180.353,305.944
				c-0.563,0.797-1.13,1.499-1.687,2.056"/>
			<path style="fill:none;stroke:#263238;stroke-linecap:round;stroke-linejoin:round;stroke-miterlimit:10;" d="M187.167,292.5
				c0,0-2.24,5.725-4.964,10.501"/>
			<path style="fill:none;stroke:#263238;stroke-linecap:round;stroke-linejoin:round;stroke-miterlimit:10;" d="M184.167,295
				c0,0-4,7.5-13,11"/>
			<path style="fill:#FFFFFF;stroke:#263238;stroke-linecap:round;stroke-linejoin:round;stroke-miterlimit:10;" d="
				M231.215,308.767c0.849-0.326,1.672-0.665,2.451-1.017"/>
			<path style="fill:#FFFFFF;stroke:#263238;stroke-linecap:round;stroke-linejoin:round;stroke-miterlimit:10;" d="M213.917,313.5
				c0,0,7.286-1.366,14.17-3.625"/>
		</g>
		<g>
			<path style="fill:#263238;stroke:#263238;stroke-linecap:round;stroke-linejoin:round;stroke-miterlimit:10;" d="M162.167,206.5
				c0,0-19.5,9.25-22.25,11s-4.5,23.5-4.5,27.25s2.75,40.5,3.5,46.75s24.75,10.5,32.75,8.25s15.75-8,15.75-10s-0.75-19-0.25-22.25
				s5-17,5-17l8.5,24.25c0,0,5.428-1.401,10.5-3.5c7.25-3,9-13,9-13s-8-14-10.25-21c-2.25-7-3.25-12.25-4.25-13.5
				s-23.5-11.75-27.5-14.5S169.167,204.5,162.167,206.5z"/>
			
				<line style="fill:none;stroke:#FFFFFF;stroke-width:0.75;stroke-linecap:round;stroke-linejoin:round;stroke-miterlimit:10;" x1="192.167" y1="250.5" x2="185.667" y2="241"/>
			
				<line style="fill:none;stroke:#FFFFFF;stroke-width:0.75;stroke-linecap:round;stroke-linejoin:round;stroke-miterlimit:10;" x1="191.108" y1="249.145" x2="179.667" y2="243.5"/>
		</g>
	</g>
</g>
<g id="Chair">
	<g>
		<path style="fill:#263238;stroke:#263238;stroke-linecap:round;stroke-linejoin:round;stroke-miterlimit:10;" d="M157.189,320.823
			l9.987,70.994c0.098,0.698,0.776,1.16,1.461,0.998l0,0c0.582-0.138,0.972-0.684,0.915-1.279l-7.037-71.881L157.189,320.823z"/>
		<path style="fill:#263238;stroke:#263238;stroke-linecap:round;stroke-linejoin:round;stroke-miterlimit:10;" d="M128.5,321.404
			l-16.694,69.722c-0.164,0.686,0.297,1.364,0.995,1.464l0,0c0.592,0.085,1.155-0.28,1.32-0.855L133.5,324.07L128.5,321.404z"/>
		<path style="fill:#263238;stroke:#263238;stroke-linecap:round;stroke-linejoin:round;stroke-miterlimit:10;" d="M158.814,320.542
			l-10.627,70.901c-0.104,0.697,0.413,1.333,1.117,1.372l0,0c0.597,0.033,1.127-0.379,1.241-0.966l13.48-69.082L158.814,320.542z"/>
		<path style="fill:#263238;stroke:#263238;stroke-linecap:round;stroke-linejoin:round;stroke-miterlimit:10;" d="M187.522,320.823
			l9.987,70.994c0.098,0.698,0.776,1.16,1.461,0.998l0,0c0.582-0.138,0.972-0.684,0.915-1.279l-7.037-71.881L187.522,320.823z"/>
		<g>
			<defs>
				<path id="XMLID_2_" d="M112.833,271.07c0,0-3-12.667-2.667-19.667c0.333-7,6.667-16,24.333-15s27,18,25.667,31.667
					c-1.333,13.667,0,40.333,9.333,46c9.333,5.667,30.333,1.667,30.333,1.667s3,0.667,0.667,3c-2.333,2.333-21.667,5.667-31.333,7
					c-7.375,1.017-26.001,0.482-34.42,0.172c-4.364-0.161-8.577-1.904-11.56-5.093c-1.125-1.203-2.188-2.661-3.021-4.411
					C115.269,306.118,112.833,271.07,112.833,271.07z"/>
			</defs>
			<use xlink:href="#XMLID_2_"  style="overflow:visible;fill:#FFFFFF;"/>
			<clipPath id="XMLID_00000163035977933454868050000004907523843671022753_">
				<use xlink:href="#XMLID_2_"  style="overflow:visible;"/>
			</clipPath>
			<path style="clip-path:url(#XMLID_00000163035977933454868050000004907523843671022753_);fill:#C6FF00;" d="M169.167,325.737
				c2.367-0.327,5.316-0.773,8.451-1.296c-4.126-0.362-8.028-1.158-10.925-2.673c-10.437-5.459-11.928-31.15-10.437-44.317
				c1.491-13.167-8.946-29.544-28.701-30.508c-7.358-0.359-12.955,0.62-17.105,2.337c-0.155,0.72-0.25,1.432-0.283,2.124
				c-0.333,7,2.667,19.667,2.667,19.667s2.436,35.048,7.333,45.333c0.833,1.75,1.896,3.208,3.021,4.411
				c2.982,3.189,7.196,4.932,11.56,5.093C143.166,326.219,161.792,326.754,169.167,325.737z"/>
			<path style="opacity:0.5;clip-path:url(#XMLID_00000163035977933454868050000004907523843671022753_);fill:#FFFFFF;" d="
				M169.167,325.737c2.367-0.327,5.316-0.773,8.451-1.296c-4.126-0.362-8.028-1.158-10.925-2.673
				c-10.437-5.459-11.928-31.15-10.437-44.317c1.491-13.167-8.946-29.544-28.701-30.508c-7.358-0.359-12.955,0.62-17.105,2.337
				c-0.155,0.72-0.25,1.432-0.283,2.124c-0.333,7,2.667,19.667,2.667,19.667s2.436,35.048,7.333,45.333
				c0.833,1.75,1.896,3.208,3.021,4.411c2.982,3.189,7.196,4.932,11.56,5.093C143.166,326.219,161.792,326.754,169.167,325.737z"/>
			
				<use xlink:href="#XMLID_2_"  style="overflow:visible;fill:none;stroke:#263238;stroke-linecap:round;stroke-linejoin:round;stroke-miterlimit:10;"/>
		</g>
	</g>
</g>
<g id="Ground">
	<rect x="78.582" y="389.389" style="fill:#263238;" width="344.569" height="5.458"/>
</g>
</svg>
